<svg width="42" height="24" viewBox="0 0 42 24" fill="none" xmlns="http://www.w3.org/2000/svg">
<path fill-rule="evenodd" clip-rule="evenodd" d="M9.1098 6.08627C8.54208 6.86929 8.12408 7.85003 7.57967 9.12735C7.43189 9.47407 7.2748 9.84265 7.10288 10.2351L5.35327 9.43434L7.10288 10.2351C6.3146 12.0342 5.26398 14.7394 4.56227 17.1216C4.31992 17.9443 4.12987 18.6931 4.00447 19.3318C4.29417 19.1442 4.61353 18.9264 4.96111 18.6804C5.51386 18.2893 6.14418 17.8198 6.79998 17.3314C8.05764 16.3947 9.40902 15.3883 10.4867 14.7303C13.6777 12.7822 16.5147 11.1342 20.9999 11.182C25.4852 11.1342 28.3221 12.7822 31.5131 14.7303C32.5908 15.3883 33.9422 16.3947 35.1999 17.3314C35.8557 17.8198 36.486 18.2893 37.0388 18.6804C37.3863 18.9264 37.7057 19.1442 37.9954 19.3318C37.87 18.6931 37.6799 17.9443 37.4376 17.1216C36.7359 14.7394 35.6853 12.0343 34.897 10.2351C34.7251 9.84268 34.568 9.47411 34.4202 9.1274C33.8758 7.85007 33.4578 6.8693 32.8901 6.08628C32.3061 5.28082 31.6772 4.85167 30.5301 4.85167C29.2718 4.85167 28.3059 5.39854 26.8113 6.27938L26.7842 6.29533C25.3769 7.12486 23.5201 8.21927 20.9999 8.19542C18.4798 8.21927 16.623 7.12486 15.2156 6.29534L15.1886 6.27938C13.694 5.39854 12.728 4.85167 11.4698 4.85167C10.3226 4.85167 9.69378 5.28083 9.1098 6.08627ZM38.1489 20.9478C38.1486 20.9473 38.1499 20.9391 38.1537 20.9243C38.1512 20.9409 38.1493 20.9482 38.1489 20.9478ZM3.8509 20.9478C3.85056 20.9483 3.84862 20.9409 3.8461 20.9243C3.84999 20.9391 3.85124 20.9474 3.8509 20.9478ZM6.02937 3.7533C7.21587 2.11684 8.91881 0.933167 11.4698 0.933167C13.8043 0.933167 15.582 1.98474 16.9245 2.77887C16.9852 2.81476 17.045 2.85013 17.1039 2.88485C18.5459 3.73474 19.5905 4.29375 20.9772 4.27695L20.9999 4.27667L21.0226 4.27695C22.4094 4.29375 23.454 3.73473 24.896 2.88485C24.9549 2.85012 25.0147 2.81475 25.0754 2.77885C26.4179 1.98473 28.1956 0.933167 30.5301 0.933167C33.081 0.933167 34.784 2.11685 35.9705 3.7533C36.8265 4.93393 37.4698 6.454 38.0295 7.7767C38.1555 8.07437 38.2772 8.36204 38.3962 8.63361L38.3962 8.63365C39.2321 10.5415 40.3477 13.408 41.1088 15.992C41.4867 17.2749 41.8001 18.5637 41.9316 19.6619C41.9969 20.2073 42.0276 20.7853 41.9678 21.33C41.9132 21.8284 41.7529 22.5926 41.1824 23.209C40.5014 23.9447 39.6277 24.0395 39.0522 23.9888C38.4958 23.9397 37.9726 23.7445 37.5576 23.5549C36.7112 23.1683 35.7578 22.5401 34.8562 21.9021C34.1135 21.3765 33.3902 20.8362 32.6954 20.3172C31.5555 19.4657 30.4926 18.6716 29.547 18.0944L30.5301 16.4123L29.547 18.0944C26.42 16.1853 24.3756 15.0606 21.0222 15.1005L20.9999 15.1008L20.9776 15.1005C17.6243 15.0606 15.5798 16.1853 12.4529 18.0943L12.4529 18.0944C11.5073 18.6716 10.4443 19.4657 9.30444 20.3172C8.6097 20.8362 7.88638 21.3765 7.14365 21.9021C6.24208 22.5401 5.28868 23.1683 4.44224 23.5549C4.02722 23.7445 3.50409 23.9397 2.94769 23.9888C2.37217 24.0395 1.49842 23.9447 0.817476 23.209L0.817451 23.209C0.246906 22.5926 0.0866671 21.8284 0.0319945 21.33C-0.0277506 20.7853 0.00297357 20.2073 0.068277 19.6619C0.199774 18.5637 0.513127 17.2749 0.891022 15.992C1.65217 13.408 2.76776 10.5415 3.60367 8.63362L3.60367 8.63362C3.72265 8.36206 3.84439 8.07438 3.97036 7.7767C4.5301 6.454 5.17336 4.93393 6.02937 3.7533Z" fill="url(#paint0_linear_167_3272)"/>
<path fill-rule="evenodd" clip-rule="evenodd" d="M6.26387 6.28374C6.12396 6.6128 5.98052 6.95018 5.82987 7.294C5.02427 9.13271 3.95002 11.8966 3.22668 14.3522C2.86429 15.5824 2.59618 16.7148 2.48943 17.6062C2.43594 18.053 2.42576 18.4177 2.45603 18.6937C2.48743 18.9799 2.55458 19.0988 2.58855 19.1362C2.5889 19.1364 2.58937 19.1366 2.58999 19.1369C2.59169 19.1376 2.59464 19.1388 2.5991 19.1401C2.61802 19.1457 2.66092 19.1531 2.73802 19.1463C2.89879 19.1322 3.13312 19.0635 3.44686 18.9202C4.06987 18.6357 4.86358 18.1246 5.75492 17.4939C6.37408 17.0557 7.04024 16.5591 7.7135 16.0572C8.9318 15.149 10.1734 14.2234 11.2018 13.5955C14.3713 11.6605 16.9216 10.2019 20.9998 10.249C25.078 10.2019 27.6282 11.6605 30.7978 13.5955L30.5299 14.0538L30.7978 13.5955C31.8263 14.2234 33.0678 15.149 34.2861 16.0572C34.9594 16.5591 35.6255 17.0557 36.2447 17.4939C37.136 18.1246 37.9297 18.6357 38.5528 18.9202C38.8665 19.0635 39.1008 19.1322 39.2616 19.1463C39.3387 19.1531 39.3816 19.1457 39.4005 19.1401C39.405 19.1388 39.4079 19.1376 39.4096 19.1369C39.4102 19.1366 39.4107 19.1364 39.411 19.1362C39.445 19.0988 39.5122 18.9799 39.5436 18.6937C39.5738 18.4177 39.5637 18.053 39.5102 17.6062C39.4034 16.7148 39.1353 15.5824 38.7729 14.3522C38.0496 11.8966 36.9753 9.13271 36.1698 7.29401C36.0191 6.9502 35.8757 6.61284 35.7358 6.2838C35.181 4.97903 34.6819 3.80513 34.0105 2.87911C33.2073 1.77138 32.1877 1.06775 30.5299 1.06775C28.8599 1.06775 27.5884 1.81724 26.1609 2.65867L26.1145 2.68607C24.6911 3.52494 23.1222 4.43534 20.9998 4.41143C18.8774 4.43534 17.3085 3.52494 15.8852 2.68607L15.8387 2.65869C14.4112 1.81725 13.1397 1.06775 11.4697 1.06775C9.81185 1.06775 8.79229 1.77138 7.98913 2.87911C7.31774 3.80511 6.81863 4.979 6.26387 6.28374ZM7.14979 2.24344C8.11712 0.909273 9.42935 6.10352e-05 11.4697 6.10352e-05C13.4226 6.10352e-05 14.9099 0.877695 16.2863 1.68992C16.3266 1.71373 16.3669 1.73748 16.407 1.76115C17.8392 2.6052 19.1845 3.36566 20.9936 3.34374L20.9998 3.34367L21.006 3.34374C22.8151 3.36566 24.1605 2.6052 25.5926 1.76114C25.6328 1.73747 25.673 1.71372 25.7134 1.68991C27.0898 0.877687 28.5771 6.10352e-05 30.5299 6.10352e-05C32.5703 6.10352e-05 33.8825 0.909275 34.8498 2.24344C35.5997 3.27776 36.1603 4.59858 36.719 5.9152C36.853 6.23093 36.9868 6.54641 37.1232 6.85765C37.9418 8.72599 39.0337 11.5338 39.7732 14.0444C40.1423 15.2972 40.4298 16.4965 40.5471 17.4765C40.6057 17.9655 40.6246 18.4216 40.5817 18.8126C40.5402 19.1911 40.4327 19.5861 40.1691 19.8709C39.887 20.1756 39.5073 20.2396 39.1718 20.2101C38.8417 20.181 38.4836 20.0581 38.1265 19.895C37.4078 19.5668 36.5457 19.0055 35.65 18.3717C34.9791 17.8969 34.2876 17.3809 33.6037 16.8707C32.4176 15.9858 31.2546 15.1181 30.2621 14.5121C27.1098 12.5876 24.7757 11.2718 21.0059 11.3167L20.9998 11.3168L20.9937 11.3167C17.224 11.2718 14.8897 12.5876 11.7376 14.5121L11.4697 14.0538L11.7376 14.5121C10.7451 15.1181 9.58201 15.9858 8.39593 16.8707C7.71205 17.381 7.02052 17.8969 6.3496 18.3717C5.45388 19.0055 4.59178 19.5668 3.87308 19.895C3.51596 20.0581 3.15795 20.181 2.82776 20.2101C2.49235 20.2396 2.11256 20.1756 1.83049 19.8709L1.83048 19.8709C1.56688 19.5861 1.45938 19.1911 1.41786 18.8126C1.37497 18.4216 1.39395 17.9655 1.4525 17.4765C1.56984 16.4965 1.85733 15.2972 2.22636 14.0444C2.96589 11.5338 4.05785 8.72598 4.87643 6.85765C5.0128 6.54641 5.14668 6.23091 5.28066 5.91518C5.83937 4.59857 6.39987 3.27776 7.14979 2.24344Z" fill="white"/>
<defs>
<linearGradient id="paint0_linear_167_3272" x1="3.67777" y1="22.0414" x2="37.2006" y2="0.651441" gradientUnits="userSpaceOnUse">
<stop stop-color="#AF01EC"/>
<stop offset="1" stop-color="#0066FF"/>
</linearGradient>
</defs>
</svg>
